# xmcd
#
# Track frame offsets: 
#        150
#        18977
#        36790
#        58877
#        79055
#        98612
#        119472
#        140360
#        158137
#        178172
#        200192
#        220357
#        235775
#        256842
#        274427
#        292940
#        312427
#        334827
#
# Disc length: 4700 seconds
#
# Revision: 20
# Processed by: cddbd v1.5.2PL0 Copyright (c) Steve Scherf et al.
# Submitted via: ExactAudioCopyFreeDBPlugin 1.0
#
DISCID=0e125a12
DTITLE=Whitney Houston - The Greatest Hits
DYEAR=2000
DGENRE=SMB
TTITLE0=You Give Good Love
TTITLE1=Saving All My Love for You
TTITLE2=Greatest Love of All
TTITLE3=All at Once
TTITLE4=If You Say My Eyes Are Beautiful (duet with Jermaine Jackson)
TTITLE5=Didn't We Almost Have it All
TTITLE6=Where Do Broken Hearts Go
TTITLE7=All the Man That I Need
TTITLE8=Run to You
TTITLE9=I Have Nothing
TTITLE10=I Will Always Love You
TTITLE11=Exhale (Shoop Shoop)
TTITLE12=Why Does it Hurt So Bad
TTITLE13=I Believe in You and Me
TTITLE14=Heartbreak Hotel (ft Faith Evans and Kelly Price)
TTITLE15=My Love is Your Love
TTITLE16=Same Script, Different Cast (duet with Deborah Cox)
TTITLE17=Could I Have This Kiss Forever (Metro Mix) (duet with Enrique
TTITLE17=Iglesias)
EXTD=Whitney Houston's Greatest Hits,  Greg Geisler YEAR: 2000
EXTT0=
EXTT1=
EXTT2=
EXTT3=
EXTT4=
EXTT5=
EXTT6=
EXTT7=
EXTT8=
EXTT9=
EXTT10=
EXTT11=
EXTT12=
EXTT13=
EXTT14=
EXTT15=
EXTT16=
EXTT17=
PLAYORDER=
